<?xml version="1.0" standalone="no"?>
<!DOCTYPE svg PUBLIC "-//W3C//DTD SVG 20010904//EN"
 "http://www.w3.org/TR/2001/REC-SVG-20010904/DTD/svg10.dtd">
<svg version="1.0" xmlns="http://www.w3.org/2000/svg"
 width="500.000000pt" height="500.000000pt" viewBox="0 0 500.000000 500.000000"
 preserveAspectRatio="xMidYMid meet">

<g transform="translate(0.000000,500.000000) scale(0.100000,-0.100000)"
fill="#0d6efd" stroke="none">
<path d="M1408 3533 c12 -2 30 -2 40 0 9 3 -1 5 -23 4 -22 0 -30 -2 -17 -4z"/>
<path d="M1308 3523 c6 -2 18 -2 25 0 6 3 1 5 -13 5 -14 0 -19 -2 -12 -5z"/>
<path d="M1258 3513 c7 -3 16 -2 19 1 4 3 -2 6 -13 5 -11 0 -14 -3 -6 -6z"/>
<path d="M1218 3503 c7 -3 16 -2 19 1 4 3 -2 6 -13 5 -11 0 -14 -3 -6 -6z"/>
<path d="M1178 3493 c7 -3 16 -2 19 1 4 3 -2 6 -13 5 -11 0 -14 -3 -6 -6z"/>
<path d="M1051 3450 c-110 -52 -223 -134 -317 -233 -125 -132 -203 -272 -250
-452 -29 -110 -26 -371 4 -485 39 -143 152 -356 218 -410 9 -8 -7 16 -35 54
-220 291 -262 693 -106 1023 107 227 251 375 475 485 105 52 113 64 11 18z"/>
<path d="M1470 2805 l0 -65 80 0 80 0 0 65 0 65 -80 0 -80 0 0 -65z"/>
<path d="M800 2524 l0 -336 243 4 c222 3 245 5 277 23 48 28 70 76 70 153 0
79 -26 134 -76 160 l-36 18 26 17 c43 29 59 71 54 148 -3 59 -8 72 -33 99 -16
16 -45 35 -64 40 -20 5 -132 10 -248 10 l-213 0 0 -336z m384 184 c22 -31 20
-74 -4 -98 -17 -17 -33 -20 -115 -20 l-95 0 0 70 0 70 99 0 c92 0 101 -2 115
-22z m32 -273 c20 -31 11 -90 -16 -105 -10 -5 -66 -10 -124 -10 l-106 0 0 70
0 70 115 0 c111 0 115 -1 131 -25z"/>
<path d="M2040 2593 c0 -148 4 -285 9 -306 19 -79 80 -112 189 -101 l62 7 0
58 c0 58 0 59 -29 59 -64 0 -61 -14 -61 281 l0 269 -85 0 -85 0 0 -267z" fill="#4d93fc"/>
<path d="M1715 2755 c-7 -52 -9 -55 -36 -55 -29 0 -29 0 -29 -65 0 -62 1 -65
24 -65 23 0 23 0 28 -142 7 -227 35 -255 236 -241 l92 6 0 58 0 59 -68 0 c-40
0 -73 5 -80 12 -8 8 -12 52 -12 130 l0 118 60 0 60 0 0 65 0 65 -60 0 -60 0 0
55 0 55 -74 0 -75 0 -6 -55z"/>
<path d="M2405 2700 c-37 -12 -73 -44 -86 -77 -5 -13 -9 -94 -9 -180 0 -248
10 -258 262 -258 153 0 169 2 195 21 54 39 63 73 63 239 0 166 -9 200 -63 239
-25 19 -44 21 -180 23 -84 1 -166 -2 -182 -7z m253 -132 c17 -17 17 -229 0
-246 -7 -7 -44 -12 -94 -12 -65 0 -83 3 -88 16 -8 20 -8 218 0 238 5 13 23 16
88 16 50 0 87 -5 94 -12z" fill="#4d93fc"/>
<path d="M2955 2700 c-37 -12 -73 -44 -86 -77 -5 -13 -9 -94 -9 -180 0 -248
10 -258 262 -258 153 0 169 2 195 21 54 39 63 73 63 239 0 166 -9 200 -63 239
-25 19 -44 21 -180 23 -84 1 -166 -2 -182 -7z m253 -132 c17 -17 17 -229 0
-246 -7 -7 -44 -12 -94 -12 -65 0 -83 3 -88 16 -3 9 -6 62 -6 119 0 57 3 110
6 119 5 13 23 16 88 16 50 0 87 -5 94 -12z" fill="#4d93fc"/>
<path d="M3682 2694 c-29 -7 -65 -20 -81 -29 -28 -14 -29 -14 -35 10 -6 24
-10 25 -76 25 l-70 0 0 -255 0 -255 80 0 80 0 0 179 c0 112 4 182 10 186 6 4
36 9 67 12 82 9 83 6 83 -204 l0 -173 80 0 80 0 0 180 c0 206 -5 194 90 195
l55 0 3 -187 2 -188 85 0 85 0 0 183 c-1 209 -8 260 -42 294 -49 49 -167 50
-262 3 -40 -19 -40 -19 -61 0 -22 20 -76 41 -105 39 -8 0 -39 -7 -68 -15z" fill="#4d93fc"/>
<path d="M1392 2618 l3 -63 38 -3 37 -3 0 -180 0 -179 80 0 80 0 0 245 0 245
-120 0 -121 0 3 -62z"/>
<path d="M820 1756 c0 -2 8 -10 18 -17 15 -13 16 -12 3 4 -13 16 -21 21 -21
13z"/>
</g>
</svg>
