<?xml version="1.0" standalone="no"?>
<!DOCTYPE svg PUBLIC "-//W3C//DTD SVG 20010904//EN"
 "http://www.w3.org/TR/2001/REC-SVG-20010904/DTD/svg10.dtd">
<svg version="1.0" xmlns="http://www.w3.org/2000/svg"
 width="500.000000pt" height="500.000000pt" viewBox="0 0 500.000000 500.000000"
 preserveAspectRatio="xMidYMid meet">

<g transform="translate(0.000000,500.000000) scale(0.100000,-0.100000)"
fill="#0d6efd" stroke="none">
<path d="M1750 3213 c2 -25 182 -346 429 -763 l283 -480 37 0 37 0 116 198
116 197 -30 58 c-17 31 -34 57 -37 57 -4 0 -49 -74 -101 -165 -71 -123 -98
-161 -105 -151 -5 7 -147 248 -315 534 l-305 522 -62 0 c-35 0 -63 -3 -63 -7z"/>
<path d="M2958 2934 l-166 -287 32 -58 c17 -32 33 -59 36 -59 3 0 57 90 120
200 63 110 118 200 123 200 4 0 7 -194 7 -431 l0 -431 66 -124 c36 -68 67
-124 70 -124 2 0 4 315 4 700 l0 700 -63 0 -63 0 -166 -286z"/>
<path d="M1751 2323 l-1 -543 70 0 70 0 -1 408 0 407 -69 135 -69 135 0 -542z"/>
<path d="M3430 1870 l0 -80 85 0 85 0 0 80 0 80 -85 0 -85 0 0 -80z"/>
</g>
</svg>
